# xmcd
#
# Track frame offsets:
#	150
#	15133
#	28529
#	43290
#	56167
#	69623
#	84116
#	96419
#	107527
#	120400
#	133515
#	147114
#	158954
#	171466
#	184865
#	197555
#	210578
#	224703
#	237540
#	251603
#	264163
#	276753
#
# Disc length: 3877 seconds
#
# Revision: 1
# Processed by: cddbd v1.5.2PL0 Copyright (c) Steve Scherf et al.
# Submitted via: EZCDAudioConverter 3.1.0.1
#
DISCID=3e0f2316
DTITLE=Essential Country Girls;Little Rock Blues [1927-1934]
DYEAR=19
DGENRE=Pre-war Blues
TTITLE0=Lottie Kimborough - Rolling Log Blues
TTITLE1=Geeshie Wiley - Last Kind Words Blues
TTITLE2=Memphis Minnie - Chickasaw Train Blues
TTITLE3=Mae Glover - Shake It Daddy
TTITLE4=Hattie Hart - I Let My Daddy Do That
TTITLE5=Geeshie Wiley - Pick Poor Robin Clean
TTITLE6=Bobbie Cadillac - I Can't Stand That
TTITLE7=Lillian Miller - Dead Drunk Blues
TTITLE8=Nellie Florence - Jacksonville Blues
TTITLE9=Lottie Kimborough - Wayward Girl Blues
TTITLE10=Pearl Dickson - Little Rock Blues
TTITLE11=Lottie Kimborough - Going Away Blues
TTITLE12=Mae Glover - Gas Man Blues
TTITLE13=Geeshie Wiley - Eagle On A Half
TTITLE14=Memphis Minnie - She Put Me Outdoors
TTITLE15=Hattie Hart - Coldest Stuff In Town
TTITLE16=Bobbie Cadillac - He Throws That Thing
TTITLE17=Nellie Florence - Midnight Weeping Blues
TTITLE18=Geeshie Wiley - Skinny Leg Blues
TTITLE19=Memphis Minnie - Keep It To Yourself
TTITLE20=Mae Glover - I Ain't Giving Nobody None
TTITLE21=Lottie Kimborough - Lost Lover Blues
EXTD=
EXTT0=
EXTT1=
EXTT2=
EXTT3=
EXTT4=
EXTT5=
EXTT6=
EXTT7=
EXTT8=
EXTT9=
EXTT10=
EXTT11=
EXTT12=
EXTT13=
EXTT14=
EXTT15=
EXTT16=
EXTT17=
EXTT18=
EXTT19=
EXTT20=
EXTT21=
PLAYORDER=
